<svg width="32" height="32" viewBox="0 0 32 32" fill="none" xmlns="http://www.w3.org/2000/svg">
  <circle cx="16" cy="16" r="16" fill="#2563eb"/>
  <path d="M22 25H10c0-2.5 2.5-3.5 2.5-7.5 0-2.5-1-4.5-1-6.5C11.5 8.5 13.5 7 16 7s4.5 1.5 4.5 4c0 2-1 4-1 6.5 0 4 2.5 5 2.5 7.5Z" fill="#fff" stroke="#1e40af" stroke-width="1.2"/>
  <path d="M13.5 25v-2.5c0-1.5 1-2.5 2.5-2.5s2.5 1 2.5 2.5V25" fill="#e0e7ef"/>
  <ellipse cx="16" cy="13.5" rx="1.2" ry="1.7" fill="#2563eb" opacity="0.18"/>
  <ellipse cx="14.5" cy="10.5" rx="0.7" ry="1.1" fill="#2563eb" opacity="0.18"/>
  <ellipse cx="17.5" cy="10.5" rx="0.7" ry="1.1" fill="#2563eb" opacity="0.18"/>
  <circle cx="19.5" cy="9.5" r="0.7" fill="#1e40af"/>
</svg>
